#!OML:ASF H:\Terrain\Patient Classification 1\PLAYGROUND\JustinFriday\JustinFriday.ASF
:FULLY-SPECIFIED
:DEGREES
514
root -7.88175 15.6158 10.2572 12.4315 -86.4805 -33.5468
lowerback 14.3415 -0.950761 -3.79188
upperback -10.8459 -2.33278 0.970236
thorax -20.8558 -0.443715 4.07562
lowerneck 4.00094 -4.15017 -7.62395
upperneck -13.2674 -5.2899 9.47622
head -4.11955 -2.83541 4.41505
rclavicle 1.11816e-016 -6.1002e-015
rhumerus 68.6184 -2.67405 -69.7937
rradius 53.4431
rwrist -344.538
rhand -3.14252 -16.1046
rfingers 7.12502
rthumb 22.5772 -44.8044
lclavicle 1.11816e-016 -6.1002e-015
lhumerus 65.5151 0.605322 61.2471
lradius 60.6859
lwrist -17.3096
lhand 2.67582 -0.529981
lfingers 7.12502
lthumb 28.1507 27.3767
rfemur 3.88289 -9.6459 11.3441
rtibia 100.576
rfoot -14.5545 -7.82937
rtoes 9.93572
lfemur 8.26269 5.56583 3.18684
ltibia 105.501
lfoot -14.8856 -1.421
ltoes 10.2294
515
root -8.00209 15.6934 10.2618 12.8181 -86.5885 -34.6261
lowerback 14.0414 -1.00779 -4.56788
upperback -10.6831 -2.48665 1.435
thorax -20.3674 -0.366378 5.09371
lowerneck 3.70453 -3.96664 -7.20767
upperneck -12.9037 -5.06993 8.79524
head -4.01411 -2.70005 4.10984
rclavicle 1.3418e-014 8.74653e-015
rhumerus 68.7054 -2.42902 -68.6165
rradius 53.1778
rwrist -345.536
rhand -3.36027 -15.2608
rfingers 7.12502
rthumb 22.3682 -43.9858
lclavicle 1.3418e-014 8.74653e-015
lhumerus 64.4916 0.839353 62.297
lradius 61.231
lwrist -17.8711
lhand 2.66545 -0.951568
lfingers 7.12502
lthumb 28.1408 26.9567
rfemur 3.53614 -9.52181 11.5366
rtibia 100.223
rfoot -14.9159 -8.00306
rtoes 9.87843
lfemur 7.96393 5.52531 2.7643
ltibia 105.501
lfoot -15.0632 -1.36287
ltoes 9.45492
516
root -8.11798 15.7691 10.2633 15.5222 -86.6118 -38.0254
lowerback 14.1308 -0.824759 -3.80912
upperback -10.738 -2.15451 0.910441
thorax -20.5808 -0.382039 3.9432
lowerneck 3.99034 -4.25767 -7.05874
upperneck -12.6507 -5.44247 9.07198
head -3.94942 -2.90692 4.18224
rclavicle 2.70844e-014 1.15792e-014
rhumerus 64.128 -3.65725 -61.9185
rradius 62.0697
rwrist -351.594
rhand -2.32512 -21.9066
rfingers 7.12502
rthumb 23.3615 -50.5089
lclavicle 2.70844e-014 1.15792e-014
lhumerus 64.0286 -0.548859 62.6758
lradius 61.6895
lwrist -18.0833
lhand 2.74463 -1.84617
lfingers 7.12502
lthumb 28.2165 26.0496
rfemur 3.21863 -9.87927 11.9476
rtibia 99.7184
rfoot -14.2456 -9.76876
rtoes 2.06145
lfemur 7.57244 5.41345 2.55319
ltibia 105.509
lfoot -15.339 -1.44184
ltoes 10.0165
517
root -8.22457 15.8388 10.2598 20.2767 -86.5466 -43.6681
lowerback 14.3084 -0.715054 -3.76214
upperback -10.6778 -1.96764 1.04908
thorax -20.6375 -0.287179 4.03033
lowerneck 4.32858 -4.32043 -7.14404
upperneck -12.5752 -5.58308 8.71515
head -3.98251 -2.95339 4.09777
rclavicle -2.45499e-014 1.23743e-014
rhumerus 63.1656 -3.45626 -62.146
rradius 62.3024
rwrist -351.289
rhand -2.34922 -22.0721
rfingers 7.12502
rthumb 23.3384 -50.6773
lclavicle -2.45499e-014 1.23743e-014
lhumerus 63.101 -1.06435 63.3028
lradius 62.4868
lwrist -18.0465
lhand 3.24044 -2.29364
lfingers 7.12502
lthumb 28.6903 25.523
rfemur 3.0906 -10.4714 12.4045
rtibia 99.1051
rfoot -12.7041 -11.8429
rtoes -6.87704
lfemur 7.18215 5.30848 2.78277
ltibia 105.564
lfoot -15.6401 -1.76291
ltoes 10.4785
518
root -8.33312 15.9155 10.2555 20.3018 -86.5212 -44.6838
lowerback 14.6338 -0.436809 -3.94943
upperback -10.3866 -1.58045 1.22366
thorax -20.5011 -0.0721681 4.22522
lowerneck 3.42527 -4.62265 -7.64482
upperneck -11.8493 -6.01855 8.42463
head -3.57302 -3.11141 4.05147
rclavicle -1.59525e-014 -8.19987e-015
rhumerus 62.5408 -3.78434 -61.4199
rradius 62.7469
rwrist -351.337
rhand -2.21669 -22.1975
rfingers 7.12502
rthumb 23.4655 -50.7865
lclavicle -1.59525e-014 -8.19987e-015
lhumerus 62.7698 -1.6763 64.5721
lradius 63.242
lwrist -18.3649
lhand 3.75655 -1.93496
lfingers 7.12502
lthumb 29.1833 25.7971
rfemur 3.20894 -10.4633 12.4411
rtibia 98.4827
rfoot -12.7963 -11.82
rtoes -5.86328
lfemur 6.94686 5.08847 2.49412
ltibia 105.457
lfoot -15.9103 -1.8915
ltoes 9.25616
519
root -8.44071 16.0007 10.256 14.8666 -86.6317 -40.0369
lowerback 15.0011 -0.130568 -3.59308
upperback -10.2848 -1.16752 0.692604
thorax -20.6728 0.00319064 3.26432
lowerneck 3.25072 -4.96899 -7.91314
upperneck -11.3821 -6.48029 8.65406
head -3.34768 -3.33435 4.15456
rclavicle -1.78906e-014 1.0138e-014
rhumerus 61.2757 -4.68906 -60.9937
rradius 63.4158
rwrist -351.48
rhand -2.13445 -22.0547
rfingers 7.12502
rthumb 23.5444 -50.6336
lclavicle -1.78906e-014 1.0138e-014
lhumerus 62.6556 -3.03651 65.3214
lradius 63.7486
lwrist -18.7643
lhand 3.97749 -1.83319
lfingers 7.12502
lthumb 29.3942 25.8621
rfemur 3.0714 -10.3676 12.1434
rtibia 97.864
rfoot -13.2591 -11.4821
rtoes -3.24167
lfemur 6.60902 4.99038 1.54901
ltibia 105.189
lfoot -16.072 -1.48618
ltoes 6.92541
520
root -8.54565 16.0834 10.2587 15.3472 -86.669 -41.205
lowerback 14.7026 -0.450345 -4.16893
upperback -10.2098 -1.66964 1.03944
thorax -20.3014 -0.106527 4.15088
lowerneck 3.31131 -4.52495 -7.59351
upperneck -10.9942 -5.9084 8.21836
head -3.31623 -3.04365 3.95004
rclavicle -1.27222e-014 1.38652e-014
rhumerus 60.65 -3.44948 -60.3378
rradius 64.9528
rwrist -352.402
rhand -2.15418 -22.8304
rfingers 7.12502
rthumb 23.5255 -51.4117
lclavicle -1.27222e-014 1.38652e-014
lhumerus 61.2077 -2.35715 65.3826
lradius 64.4795
lwrist -18.8881
lhand 4.22052 -2.06955
lfingers 7.12502
lthumb 29.6262 25.5848
rfemur 2.71555 -10.8322 12.361
rtibia 97.1357
rfoot -11.9398 -13.2258
rtoes -9.40412
lfemur 6.06605 4.97069 1.12386
ltibia 104.956
lfoot -16.1232 -1.15562
ltoes 5.89505
521
root -8.65763 16.1753 10.2567 20.0548 -86.5798 -46.6368
lowerback 14.5956 -0.746921 -3.94505
upperback -10.3013 -2.03247 1.02419
thorax -20.3148 -0.298218 4.11792
lowerneck 3.91899 -4.22862 -6.89894
upperneck -10.5911 -5.53161 7.86902
head -3.35903 -2.87482 3.72974
rclavicle -1.07344e-014 8.94531e-016
rhumerus 59.3339 -2.57415 -60.4331
rradius 66.4133
rwrist -352.849
rhand -1.98735 -23.464
rfingers 7.12502
rthumb 23.6855 -52.0247
lclavicle -1.07344e-014 8.94531e-016
lhumerus 59.7194 -2.43469 65.0077
lradius 65.1938
lwrist -18.8772
lhand 4.2934 -1.48799
lfingers 7.12502
lthumb 29.6958 26.1539
rfemur 2.40102 -11.1319 12.7479
rtibia 96.4242
rfoot -11.8436 -13.5451
rtoes -11.3422
lfemur 5.61524 4.80438 1.02193
ltibia 104.589
lfoot -16.3148 -1.02195
ltoes 6.16972
522
root -8.76971 16.2794 10.2594 26.0227 -86.4683 -53.2761
lowerback 14.6051 -0.441674 -3.21231
upperback -10.2633 -1.43864 0.988952
thorax -20.3391 -0.146281 3.47608
lowerneck 4.08512 -4.5729 -7.49415
upperneck -10.3257 -6.03865 7.99278
head -3.24593 -3.10749 3.87314
rclavicle -1.28216e-014 1.18277e-014
rhumerus 57.904 -3.29563 -59.469
rradius 67.256
rwrist -353.231
rhand -1.92357 -23.7094
rfingers 7.12502
rthumb 23.7467 -52.2622
lclavicle -1.28216e-014 1.18277e-014
lhumerus 59.1646 -3.51977 65.9782
lradius 65.8195
lwrist -19.1895
lhand 4.10783 -0.788481
lfingers 7.12502
lthumb 29.5186 26.8849
rfemur 2.0249 -11.0167 13.0891
rtibia 95.7661
rfoot -13.3858 -11.9446
rtoes -5.87066
lfemur 5.22047 4.73068 1.07216
ltibia 104.061
lfoot -16.615 -1.04822
ltoes 6.44243
523
root -8.86964 16.36 10.2742 32.0633 -86.4071 -60.01
lowerback 14.4214 -0.287913 -2.95532
upperback -10.069 -1.09155 1.3019
thorax -19.9771 -0.00677397 3.5824
lowerneck 3.80987 -4.74819 -8.12005
upperneck -9.93766 -6.29973 8.079
head -3.04046 -3.21195 3.98609
rclavicle -2.78299e-015 2.96189e-014
rhumerus 58.4997 -1.87032 -62.554
rradius 65.4212
rwrist -349.477
rhand -2.0653 -22.1964
rfingers 7.12502
rthumb 23.6108 -50.7668
lclavicle -2.78299e-015 2.96189e-014
lhumerus 58.3869 -3.80289 66.7182
lradius 66.7797
lwrist -19.5292
lhand 4.10111 -0.396715
lfingers 7.12502
lthumb 29.5122 27.2778
rfemur 1.61048 -10.7568 13.7718
rtibia 95.0593
rfoot -13.3003 -12.0925
rtoes -6.43787
lfemur 4.69757 4.85606 1.16482
ltibia 103.661
lfoot -16.8892 -1.11903
ltoes 5.93483
524
root -8.96939 16.4487 10.2753 32.0916 -86.4007 -60.794
lowerback 14.3322 -0.676794 -2.98324
upperback -9.96246 -1.66215 1.06795
thorax -19.7263 -0.284853 3.48642
lowerneck 3.78274 -4.44784 -6.89344
upperneck -9.49163 -5.83121 8.02986
head -2.97947 -3.02381 3.75246
rclavicle 1.49089e-014 -2.79292e-014
rhumerus 56.6948 -2.09664 -60.1769
rradius 68.6911
rwrist -352.788
rhand -2.20311 -24.3186
rfingers 7.12502
rthumb 23.4786 -52.9059
lclavicle 1.49089e-014 -2.79292e-014
lhumerus 57.2162 -3.75654 65.6061
lradius 67.6518
lwrist -19.6276
lhand 4.10936 -0.446294
lfingers 7.12502
lthumb 29.5201 27.2268
rfemur 1.30201 -10.564 14.0886
rtibia 94.3081
rfoot -12.9268 -12.0747
rtoes -10.6102
lfemur 4.23062 4.50656 0.290428
ltibia 103.048
lfoot -17.0121 -0.623038
ltoes 5.16601
525
root -9.06662 16.5387 10.275 30.7067 -86.4263 -60.1983
lowerback 14.4918 -0.425438 -3.03932
upperback -9.89787 -1.31374 1.15039
thorax -19.7778 -0.11251 3.51283
lowerneck 4.11786 -4.66367 -7.97354
upperneck -9.33213 -6.18413 8.44862
head -2.91076 -3.1823 4.06643
rclavicle 2.08724e-015 -1.43125e-014
rhumerus 55.785 -1.64036 -61.1659
rradius 68.7273
rwrist -351.166
rhand -2.61224 -24.0129
rfingers 7.12502
rthumb 23.0861 -52.6499
lclavicle 2.08724e-015 -1.43125e-014
lhumerus 56.4351 -4.61101 66.8015
lradius 68.1241
lwrist -20.0858
lhand 3.82903 -0.624255
lfingers 7.12502
lthumb 29.2525 27.0958
rfemur 0.98682 -10.1615 14.2181
rtibia 93.6476
rfoot -13.8316 -10.5537
rtoes -2.91625
lfemur 3.8331 4.21592 -0.545323
ltibia 102.307
lfoot -17.0863 -0.239094
ltoes 5.07663
526
root -9.15997 16.6266 10.2835 30.3212 -86.3182 -60.6261
lowerback 14.5068 -0.875266 -3.38192
upperback -9.71468 -1.96051 1.37655
thorax -19.4708 -0.333913 4.16365
lowerneck 3.88204 -4.27747 -7.2466
upperneck -8.96225 -5.64123 8.04079
head -2.84204 -2.91713 3.79873
rclavicle 1.68594e-014 -3.19733e-014
rhumerus 55.8751 0.204774 -63.5232
rradius 68.4636
rwrist -349.543
rhand -3.26489 -23.464
rfingers 7.12502
rthumb 22.4597 -52.1781
lclavicle 1.68594e-014 -3.19733e-014
lhumerus 55.312 -3.81367 66.5596
lradius 68.6351
lwrist -20.2238
lhand 3.91572 -0.746786
lfingers 7.12502
lthumb 29.3352 26.9588
rfemur 0.764406 -10.0544 14.4316
rtibia 92.8771
rfoot -14.5601 -9.71311
rtoes 3.58397
lfemur 3.40014 3.94243 -1.06525
ltibia 101.499
lfoot -17.1328 -0.159273
ltoes 5.51718
